<svg xmlns="http://www.w3.org/2000/svg" xmlns:xlink="http://www.w3.org/1999/xlink" version="1.2" width="141.42mm" height="100mm" viewBox="0 0 141.42 100" stroke="none" fill="#000000" stroke-width="0.3" font-size="3.88">
<defs>
  <marker id="arrow" markerWidth="15" markerHeight="7" refX="5" refY="3.5" orient="auto" markerUnits="strokeWidth">
    <path d="M0,0 L15,3.5 L0,7 z" stroke="context-stroke" fill="context-stroke"></path>
  </marker>
</defs>
<g stroke-width="1.22" fill="#000000" fill-opacity="0.000" stroke="#D3D3D3" id="img-a8ca835e-1">
  <g transform="translate(48.31,22.54)">
    <path fill="none" d="M-2.23,-11.45 L2.23,11.45 " class="primitive"></path>
  </g>
  <g transform="translate(72.15,51.01)">
    <path fill="none" d="M-16.25,-10.01 L16.25,10.01 " class="primitive"></path>
  </g>
  <g transform="translate(31.43,39.43)">
    <path fill="none" d="M13.93,-0.86 L-13.93,0.86 " class="primitive"></path>
  </g>
  <g transform="translate(108.39,60.89)">
    <path fill="none" d="M-16.21,1 L16.21,-1 " class="primitive"></path>
  </g>
  <g transform="translate(92.9,76.73)">
    <path fill="none" d="M-2.57,-13.19 L2.57,13.19 " class="primitive"></path>
  </g>
</g>
<g stroke-width="1.22" stroke="#D3D3D3" id="img-a8ca835e-2">
</g>
<g font-size="4" stroke="#000000" stroke-opacity="0.000" fill="#000000" id="img-a8ca835e-3">
</g>
<g stroke-width="0" stroke="#000000" stroke-opacity="0.000" id="img-a8ca835e-4">
  <g transform="translate(45.54,8.33)" fill="#00FF00">
    <circle cx="0" cy="0" r="3.78" class="primitive"></circle>
  </g>
  <g transform="translate(51.36,38.2)" fill="#00FF00">
    <circle cx="0" cy="0" r="5.77" class="primitive"></circle>
  </g>
  <g transform="translate(90.03,62.03)" fill="#00FF00">
    <circle cx="0" cy="0" r="2.07" class="primitive"></circle>
  </g>
  <g transform="translate(11.79,40.64)" fill="#00FF00">
    <circle cx="0" cy="0" r="5.51" class="primitive"></circle>
  </g>
  <g transform="translate(129.64,59.58)" fill="#00FF00">
    <circle cx="0" cy="0" r="4.85" class="primitive"></circle>
  </g>
  <g transform="translate(95.81,91.67)" fill="#00FF00">
    <circle cx="0" cy="0" r="2.4" class="primitive"></circle>
  </g>
</g>
<g font-size="4" stroke="#000000" stroke-opacity="0.000" fill="#000000" id="img-a8ca835e-5">
  <g transform="translate(45.54,8.33)">
    <g class="primitive">
      <text text-anchor="middle" dy="0.35em">1</text>
    </g>
  </g>
  <g transform="translate(51.36,38.2)">
    <g class="primitive">
      <text text-anchor="middle" dy="0.35em">2</text>
    </g>
  </g>
  <g transform="translate(90.03,62.03)">
    <g class="primitive">
      <text text-anchor="middle" dy="0.35em">3</text>
    </g>
  </g>
  <g transform="translate(11.79,40.64)">
    <g class="primitive">
      <text text-anchor="middle" dy="0.35em">4</text>
    </g>
  </g>
  <g transform="translate(129.64,59.58)">
    <g class="primitive">
      <text text-anchor="middle" dy="0.35em">5</text>
    </g>
  </g>
  <g transform="translate(95.81,91.67)">
    <g class="primitive">
      <text text-anchor="middle" dy="0.35em">6</text>
    </g>
  </g>
</g>
</svg>