<svg xmlns="http://www.w3.org/2000/svg" xmlns:xlink="http://www.w3.org/1999/xlink" version="1.2" width="141.42mm" height="100mm" viewBox="0 0 141.42 100" stroke="none" fill="#000000" stroke-width="0.3" font-size="3.88">
<defs>
  <marker id="arrow" markerWidth="15" markerHeight="7" refX="5" refY="3.5" orient="auto" markerUnits="strokeWidth">
    <path d="M0,0 L15,3.5 L0,7 z" stroke="context-stroke" fill="context-stroke"></path>
  </marker>
</defs>
<g stroke-width="1.22" fill="#000000" fill-opacity="0.000" stroke="#D3D3D3" id="img-c02ae8bb-1">
  <g transform="translate(16.15,72.59)">
    <path fill="none" d="M3.47,16.32 L-3.47,-16.32 " class="primitive"></path>
  </g>
  <g transform="translate(45.41,77.09)">
    <path fill="none" d="M-22.17,12.81 L22.17,-12.81 " class="primitive"></path>
  </g>
  <g transform="translate(42.38,58.05)">
    <path fill="none" d="M-24.79,-4.85 L24.79,4.85 " class="primitive"></path>
  </g>
  <g transform="translate(20.1,30.11)">
    <path fill="none" d="M-6.76,17.85 L6.76,-17.85 " class="primitive"></path>
  </g>
  <g transform="translate(98.07,56.78)">
    <path fill="none" d="M-26.76,6.07 L26.76,-6.07 " class="primitive"></path>
  </g>
  <g transform="translate(78.69,43.1)">
    <path fill="none" d="M-8.76,18.76 L8.76,-18.76 " class="primitive"></path>
  </g>
  <g transform="translate(59.82,15.86)">
    <path fill="none" d="M-26.04,-6.23 L26.04,6.23 " class="primitive"></path>
  </g>
  <g transform="translate(108,35.53)">
    <path fill="none" d="M17.93,11.68 L-17.93,-11.68 " class="primitive"></path>
  </g>
</g>
<g stroke-width="1.22" stroke="#D3D3D3" id="img-c02ae8bb-2">
</g>
<g font-size="4" stroke="#000000" stroke-opacity="0.000" fill="#000000" id="img-c02ae8bb-3">
</g>
<g stroke-width="0" stroke="#000000" stroke-opacity="0.000" id="img-c02ae8bb-4">
  <g transform="translate(20.2,91.67)" fill="#00FF00">
    <circle cx="0" cy="0" r="3.78" class="primitive"></circle>
  </g>
  <g transform="translate(11.79,52.07)" fill="#00FF00">
    <circle cx="0" cy="0" r="5.77" class="primitive"></circle>
  </g>
  <g transform="translate(69.25,63.31)" fill="#00FF00">
    <circle cx="0" cy="0" r="2.07" class="primitive"></circle>
  </g>
  <g transform="translate(28.34,8.33)" fill="#00FF00">
    <circle cx="0" cy="0" r="5.51" class="primitive"></circle>
  </g>
  <g transform="translate(129.64,49.63)" fill="#00FF00">
    <circle cx="0" cy="0" r="4.85" class="primitive"></circle>
  </g>
  <g transform="translate(88.23,22.66)" fill="#00FF00">
    <circle cx="0" cy="0" r="2.4" class="primitive"></circle>
  </g>
</g>
<g font-size="4" stroke="#000000" stroke-opacity="0.000" fill="#000000" id="img-c02ae8bb-5">
  <g transform="translate(20.2,91.67)">
    <g class="primitive">
      <text text-anchor="middle" dy="0.35em">1</text>
    </g>
  </g>
  <g transform="translate(11.79,52.07)">
    <g class="primitive">
      <text text-anchor="middle" dy="0.35em">2</text>
    </g>
  </g>
  <g transform="translate(69.25,63.31)">
    <g class="primitive">
      <text text-anchor="middle" dy="0.35em">3</text>
    </g>
  </g>
  <g transform="translate(28.34,8.33)">
    <g class="primitive">
      <text text-anchor="middle" dy="0.35em">4</text>
    </g>
  </g>
  <g transform="translate(129.64,49.63)">
    <g class="primitive">
      <text text-anchor="middle" dy="0.35em">5</text>
    </g>
  </g>
  <g transform="translate(88.23,22.66)">
    <g class="primitive">
      <text text-anchor="middle" dy="0.35em">6</text>
    </g>
  </g>
</g>
</svg>